<svg xmlns="http://www.w3.org/2000/svg" xmlns:xlink="http://www.w3.org/1999/xlink" width="155" height="34" viewBox="0 0 155 34">
  <defs>
    <polygon id="vct-mobile-logo-a" points="0 .214 19.673 .214 19.673 11.173 0 11.173"/>
    <polygon id="vct-mobile-logo-c" points=".245 .054 18.064 .054 18.064 11.173 .245 11.173"/>
  </defs>
  <g fill="none" fill-rule="evenodd">
    <path fill="#FFF" d="M16.088995,0 C15.2521489,0 14.7288677,0.863165389 15.1471465,1.55320305 L20.5585206,10.4824718 C20.9767994,11.1725094 22.0230734,11.1725094 22.4413522,10.4824718 L27.8527263,1.55320305 C28.2710051,0.863165389 27.7485893,0 26.9117432,0 L16.088995,0 Z"/>
    <path fill="#EE5C25" d="M28.5730229,8 C28.181038,8 27.8190266,8.19953451 27.6228887,8.52356967 L22.4508411,17.0793761 C22.0288825,17.7777469 20.9736952,17.7777469 20.5514457,17.0793761 L15.378525,8.52356967 C15.1823871,8.19953451 14.8206667,8 14.4289728,8 L1.09857523,8 C0.254367152,8 -0.273517524,8.87289401 0.14844101,9.570709 L3.83897765,15.6748532 C4.03511562,15.9986105 4.39712694,16.1984229 4.78882086,16.1984229 L10.1031703,16.1984229 L10.1054984,16.1984229 L20.5514457,33.4762219 C20.9736952,34.1745927 22.0288825,34.1745927 22.4508411,33.4762219 L32.8959153,16.1984229 L38.2114288,16.1984229 C38.6034137,16.1984229 38.9654251,15.9986105 39.161563,15.6748532 L42.8512267,9.570709 C43.2737672,8.87289401 42.7458825,8 41.9019655,8 L28.5730229,8 Z"/>
    <g transform="translate(48 13)">
      <mask id="vct-mobile-logo-b" fill="#fff">
        <use xlink:href="#vct-mobile-logo-a"/>
      </mask>
      <path fill="#FFF" d="M12.4176013,9.81283735 C11.8843132,10.5326522 11.0401012,11.1727636 9.75143637,11.1727636 C8.46277157,11.1727636 7.70739495,10.5728765 7.12968909,9.81283735 L0.0667245385,0.73209576 C-0.102945521,0.514090425 0.0705869464,0.214395163 0.366337034,0.214395163 L4.53690987,0.214395163 C4.65774806,0.214395163 4.77058554,0.268027455 4.83872945,0.357911204 L9.5014834,6.50526438 C9.64439249,6.6937223 9.95228158,6.69719846 10.1007084,6.51172012 L15.018933,0.351455465 C15.0876287,0.265296181 15.1982591,0.214395163 15.3160626,0.214395163 L19.3070334,0.214395163 C19.6044388,0.214395163 19.7774195,0.516573401 19.6049906,0.734330439 L12.4176013,9.81283735 Z" mask="url(#vct-mobile-logo-b)"/>
    </g>
    <path fill="#FFF" d="M69 23.2523311L69 13.7476689C69 13.3348643 69.3522029 13 69.7866489 13L72.2133511 13C72.6477971 13 73 13.3348643 73 13.7476689L73 23.2523311C73 23.6653896 72.6477971 24 72.2133511 24L69.7866489 24C69.3522029 24 69 23.6653896 69 23.2523311M81.2550038 24C77.0521221 24 74 21.5874031 74 18.3979413 74 15.1673514 77.0963398 13 81.2550038 13L88.2284972 13C88.8675945 13 89.2284771 13.6778527 88.8387569 14.1462565L87.3699592 15.9117199C87.2238484 16.0868953 86.9983654 16.1894618 86.7591502 16.1894618L81.2550038 16.1894618C79.3525428 16.1894618 78.113897 16.7619553 78.113897 18.3979413 78.113897 20.0334195 79.3525428 20.8514125 81.2550038 20.8514125L88.2161383 20.8514125C88.8574327 20.8514125 89.217766 21.5333272 88.8236514 22.0012232L87.3699592 23.7258124C87.2238484 23.8989568 86.9997387 24 86.7621713 24L81.2550038 24z"/>
    <g transform="translate(104 13)">
      <mask id="vct-mobile-logo-d" fill="#fff">
        <use xlink:href="#vct-mobile-logo-c"/>
      </mask>
      <path fill="#FFF" d="M9.15434621,3.17378034 C5.60788814,3.17378034 4.36702685,3.45386009 4.36702685,5.57357711 C4.36702685,7.69304584 5.5635815,8.01310151 9.15434621,8.01310151 C12.7448357,8.01310151 13.9416656,7.69304584 13.9416656,5.57357711 C13.9416656,3.45386009 12.7448357,3.17378034 9.15434621,3.17378034 M9.15434621,11.1726891 C3.21450366,11.1726891 0.244582382,9.45297957 0.244582382,5.61355304 C0.244582382,1.7738782 3.21450366,0.0544169884 9.15434621,0.0544169884 C15.0939136,0.0544169884 18.0638349,1.7738782 18.0638349,5.61355304 C18.0638349,9.45297957 15.0939136,11.1726891 9.15434621,11.1726891" mask="url(#vct-mobile-logo-d)"/>
    </g>
    <path fill="#FFF" d="M134.580858,23.9592771 L132.559058,21.4830187 C132.428558,21.3234151 132.225618,21.2295753 132.010469,21.2295753 L127.753619,21.2295753 C127.372971,21.2295753 127.064492,21.5174182 127.064492,21.8722895 L127.064492,23.3168157 C127.064492,23.6716871 126.755741,23.9592771 126.375094,23.9592771 L123.689398,23.9592771 C123.308751,23.9592771 123,23.6716871 123,23.3168157 L123,18.8575272 C123,18.5026558 123.308751,18.2148129 123.689398,18.2148129 L133.619336,18.2148129 C134.580858,18.2148129 135.1053,17.8887765 135.1053,17.1964865 C135.1053,16.5036906 134.580858,16.1776541 133.619336,16.1776541 L123.689398,16.1776541 C123.308751,16.1776541 123,15.8900642 123,15.5349399 L123,13.6427142 C123,13.2878429 123.308751,13 123.689398,13 L133.138847,13 C135.804465,13 139.344244,13.7332659 139.344244,16.9926188 C139.344244,18.3066293 138.662443,19.5146589 137.435851,20.1470027 C137.027259,20.3576996 136.93637,20.8618041 137.26791,21.1683644 C137.70906,21.5760997 138.326561,22.190485 139.169521,23.1038424 L140,24 L134.580858,24 L134.580858,23.9592771 Z"/>
    <path fill="#FFF" d="M144.575504 20.5448734C144.575504 20.4611511 144.542884 20.380464 144.483793 20.3179885L138.092339 13.5670859C137.885119 13.348042 138.04929 13 138.360253 13L142.553843 13C142.66133 13 142.763202 13.0455288 142.831651 13.1236864L145.350639 16.0147624C145.680586 16.3835453 146.0731 16.8509738 146.353582 17.2248155 146.497165 17.4157833 146.793155 17.4175539 146.935401 17.2258272 147.21722 16.8464209 147.586739 16.3896158 147.891553 16.0147624L150.281664 13.1302628C150.349846 13.0478052 150.454124 13 150.564552 13L154.639692 13C154.947982 13 155.11349 13.3429833 154.911083 13.5630389L148.669094 20.3597231C148.612142 20.4216928 148.580591 20.5006093 148.580591 20.5825611L148.580591 23.659799C148.580591 23.8479845 148.419896 24 148.221232 24L144.965879 24C144.750104 24 144.575504 23.8348318 144.575504 23.6307112L144.575504 20.5448734zM95.1906477 23.4726966L95.1906477 16.717019C95.1906477 16.4255678 94.9323378 16.1897157 94.6137557 16.1897157L90.9676984 16.1897157C90.6857796 16.1897157 90.445246 16.0033696 90.3985835 15.7492384L90.0080635 13.6143833C89.94918 13.2927206 90.2202664 13 90.5771784 13L104.422586 13C104.816717 13 105.094747 13.3531435 104.969758 13.6946086L104.18844 15.8297175C104.109281 16.0444978 103.889023 16.1897157 103.64099 16.1897157L99.9282723 16.1897157C99.6096902 16.1897157 99.3511026 16.4255678 99.3511026 16.717019L99.3511026 23.4726966C99.3511026 23.763894 99.0930705 24 98.7742106 24L95.7675397 24C95.4489575 24 95.1906477 23.763894 95.1906477 23.4726966"/>
  </g>
</svg>
